# xmcd CD database file
#
# Track frame offsets:
#	150
#	10474
#	18525
#	34223
#	52222
#	72758
#	84841
#	113465
#	132499
#	148247
#	163279
#
# Disc length: 2399 seconds
#
# Revision: 1
# Processed by: cddbd v1.5.2PL0 Copyright (c) Steve Scherf et al.
# Submitted via: CDex 1.51
#
DISCID=9b095d0b
DTITLE=77's - Gimme A Kickstart...
DYEAR=2014
DGENRE=
TTITLE0=The Late Greats
TTITLE1=Feelin'
TTITLE2=I Need You Around
TTITLE3=Bury My Body
TTITLE4=Suspicious Minds
TTITLE5=Flowers Never Bend With The Rainfall
TTITLE6=The Battle of Evermore
TTITLE7=In My Time Of Dying
TTITLE8=Effect and Cause
TTITLE9=Southbound
TTITLE10=Wonderful Tonight
EXTD=YEAR: 2014
EXTT0=
EXTT1=
EXTT2=
EXTT3=
EXTT4=
EXTT5=
EXTT6=
EXTT7=
EXTT8=
EXTT9=
EXTT10=
PLAYORDER=
